<svg width="360" height="475" viewBox="0 0 360 475" fill="none" xmlns="http://www.w3.org/2000/svg">
<ellipse cx="207.61" cy="3.99143" rx="5.55825" ry="5.49857" fill="#7268DC"/>
<ellipse cx="270.064" cy="10.937" rx="5.55825" ry="5.49857" fill="#7268DC"/>
<ellipse cx="126.433" cy="167.212" rx="5.55825" ry="5.49857" fill="#7268DC"/>
<ellipse cx="207.61" cy="203.676" rx="5.55825" ry="5.49857" fill="#7268DC"/>
<ellipse cx="187.717" cy="250.559" rx="5.55825" ry="5.49857" fill="#7268DC"/>
<ellipse cx="262.458" cy="307.281" rx="5.55825" ry="5.49857" fill="#7268DC"/>
<ellipse cx="352.411" cy="311.911" rx="5.55825" ry="5.49857" fill="#7268DC"/>
<ellipse cx="299.318" cy="222.777" rx="5.55825" ry="5.49857" fill="#7268DC"/>
<ellipse cx="260.852" cy="63.6075" rx="5.55825" ry="5.49857" fill="#7268DC"/>
<ellipse cx="342.029" cy="76.9198" rx="5.55825" ry="5.49857" fill="#7268DC"/>
<ellipse cx="246.225" cy="115.699" rx="5.55825" ry="5.49857" fill="#7268DC"/>
<ellipse cx="180.111" cy="107.017" rx="5.55825" ry="5.49857" fill="#7268DC"/>
<ellipse cx="118.242" cy="75.7622" rx="5.55825" ry="5.49857" fill="#7268DC"/>
<ellipse cx="52.2775" cy="107.017" rx="5.55825" ry="5.49857" fill="#7268DC"/>
<ellipse cx="101.86" cy="115.699" rx="5.55825" ry="5.49857" fill="#7268DC"/>
<ellipse cx="126.433" cy="3.99143" rx="5.55825" ry="5.49857" fill="#7268DC"/>
<ellipse cx="71.585" cy="45.086" rx="5.55825" ry="5.49857" fill="#7268DC"/>
<line y1="-1.5" x2="66.3054" y2="-1.5" transform="matrix(0.732393 0.680882 -0.688734 0.725014 85.9195 -41.4441)" stroke="#7268DC" stroke-width="3"/>
<line y1="-1.5" x2="121.297" y2="-1.5" transform="matrix(0.31353 0.949578 -0.951557 0.307472 84.1643 -39.7078)" stroke="#7268DC" stroke-width="3"/>
<line y1="-1.5" x2="69.2955" y2="-1.5" transform="matrix(-0.109762 0.993958 -0.994211 -0.107445 125.556 6.59601)" stroke="#7268DC" stroke-width="3"/>
<line y1="-1.5" x2="116.392" y2="-1.5" transform="matrix(0.492625 0.870242 -0.874739 0.484594 128.481 5.43842)" stroke="#7268DC" stroke-width="3"/>
<line y1="-1.5" x2="81.359" y2="-1.5" transform="matrix(0.999595 0.0284564 -0.029077 0.999577 128.481 1.96564)" stroke="#7268DC" stroke-width="3"/>
<line y1="-1.5" x2="103.686" y2="-1.5" transform="matrix(0.25957 -0.965724 0.967102 0.254387 180.404 106.728)" stroke="#7268DC" stroke-width="3"/>
<line y1="-1.5" x2="76.1625" y2="-1.5" transform="matrix(0.921838 -0.387574 0.394728 0.918798 53.7401 106.728)" stroke="#7268DC" stroke-width="3"/>
<line y1="-1.5" x2="90.0353" y2="-1.5" transform="matrix(-0.0844783 -0.996425 0.996576 -0.0826862 126.726 166.923)" stroke="#7268DC" stroke-width="3"/>
<line y1="-1.5" x2="80.6537" y2="-1.5" transform="matrix(0.710913 -0.703279 0.710913 0.703279 126.726 166.923)" stroke="#7268DC" stroke-width="3"/>
<line y1="-1.5" x2="38.4443" y2="-1.5" transform="matrix(0.395691 -0.918384 0.921437 0.388526 103.908 112.516)" stroke="#7268DC" stroke-width="3"/>
<line y1="-1.5" x2="54.7573" y2="-1.5" transform="matrix(-0.416713 -0.909038 0.912392 -0.409316 126.726 166.923)" stroke="#7268DC" stroke-width="3"/>
<line y1="-1.5" x2="55.6785" y2="-1.5" transform="matrix(-0.987768 -0.15593 0.159248 -0.987238 109.908 115.41)" stroke="#7268DC" stroke-width="3"/>
<line y1="-1.5" x2="58.2709" y2="-1.5" transform="matrix(0.30122 -0.953554 0.955388 0.295353 53.7401 103.255)" stroke="#7268DC" stroke-width="3"/>
<line y1="-1.5" x2="61.2344" y2="-1.5" transform="matrix(-0.859927 -0.510416 0.518584 -0.855026 123.95 75.4728)" stroke="#7268DC" stroke-width="3"/>
<line y1="-1.5" x2="72.9391" y2="-1.5" transform="matrix(-0.914448 -0.404702 0.412049 -0.911161 188.159 106.728)" stroke="#7268DC" stroke-width="3"/>
<line y1="-1.5" x2="89.265" y2="-1.5" transform="matrix(0.419482 0.907763 -0.911158 0.412057 32.6772 -36.235)" stroke="#7268DC" stroke-width="3"/>
<line y1="-1.5" x2="86.9641" y2="-1.5" transform="matrix(0.477675 0.878536 -0.882803 0.469742 85.1852 -72.6992)" stroke="#7268DC" stroke-width="3"/>
<line y1="-1.5" x2="66.9269" y2="-1.5" transform="matrix(0.437103 -0.899411 0.903065 0.429504 126.726 3.70203)" stroke="#7268DC" stroke-width="3"/>
<line y1="-1.5" x2="82.5526" y2="-1.5" transform="matrix(-0.644949 -0.764226 0.771033 -0.636795 213.318 3.70203)" stroke="#7268DC" stroke-width="3"/>
<line y1="-1.5" x2="94.2894" y2="-1.5" transform="matrix(-0.266821 -0.963746 0.965199 -0.261515 207.318 3.70203)" stroke="#7268DC" stroke-width="3"/>
<line y1="-1.5" x2="66.9269" y2="-1.5" transform="matrix(-0.437103 -0.899411 0.903065 -0.429504 275.772 9.48999)" stroke="#7268DC" stroke-width="3"/>
<line y1="-1.5" x2="64.431" y2="-1.5" transform="matrix(0.563004 -0.826454 0.832046 0.554706 209.073 4.28082)" stroke="#7268DC" stroke-width="3"/>
<line y1="-1.5" x2="65.2012" y2="-1.5" transform="matrix(0.996052 0.0887708 -0.0906927 0.995879 209.073 5.43842)" stroke="#7268DC" stroke-width="3"/>
<line y1="-1.5" x2="110.512" y2="-1.5" transform="matrix(0.333539 0.942736 -0.94496 0.327185 207.318 8.3324)" stroke="#7268DC" stroke-width="3"/>
<line y1="-1.5" x2="62.4061" y2="-1.5" transform="matrix(0.993787 0.111296 -0.113694 0.993516 182.159 108.464)" stroke="#7268DC" stroke-width="3"/>
<line y1="-1.5" x2="91.6692" y2="-1.5" transform="matrix(0.925463 0.378838 -0.385887 0.922546 128.481 169.238)" stroke="#7268DC" stroke-width="3"/>
<line y1="-1.5" x2="97.5512" y2="-1.5" transform="matrix(0.275893 0.961188 -0.962738 0.270435 180.404 110.201)" stroke="#7268DC" stroke-width="3"/>
<line y1="-1.5" x2="90.0761" y2="-1.5" transform="matrix(-0.409209 0.91244 -0.915687 -0.401893 244.177 118.883)" stroke="#7268DC" stroke-width="3"/>
<line y1="-1.5" x2="103.686" y2="-1.5" transform="matrix(-0.259569 0.965724 -0.967102 -0.254387 274.017 11.2264)" stroke="#7268DC" stroke-width="3"/>
<line y1="-1.5" x2="106.612" y2="-1.5" transform="matrix(0.998805 0.0488611 -0.049925 0.998753 268.017 11.2264)" stroke="#7268DC" stroke-width="3"/>
<line y1="-1.5" x2="125.515" y2="-1.5" transform="matrix(0.927622 -0.37352 0.380504 0.924779 258.07 63.3181)" stroke="#7268DC" stroke-width="3"/>
<line y1="-1.5" x2="106.756" y2="-1.5" transform="matrix(0.931691 -0.363253 0.370105 0.92899 248.273 115.41)" stroke="#7268DC" stroke-width="3"/>
<line y1="-1.5" x2="87.3621" y2="-1.5" transform="matrix(0.991182 0.132505 -0.135345 0.990798 255.145 65.0544)" stroke="#7268DC" stroke-width="3"/>
<line y1="-1.5" x2="90.6791" y2="-1.5" transform="matrix(0.987186 0.159573 -0.162964 0.986632 341.662 77.2092)" stroke="#7268DC" stroke-width="3"/>
<line y1="-1.5" x2="62.5603" y2="-1.5" transform="matrix(0.476964 -0.878923 0.883179 0.469036 341.662 74.3152)" stroke="#7268DC" stroke-width="3"/>
<line y1="-1.5" x2="80.3359" y2="-1.5" transform="matrix(-0.502521 -0.864565 0.869216 -0.494432 382.107 146.086)" stroke="#7268DC" stroke-width="3"/>
<line y1="-1.5" x2="118.638" y2="-1.5" transform="matrix(-0.478367 -0.87816 0.882438 -0.470429 305.026 221.329)" stroke="#7268DC" stroke-width="3"/>
<line y1="-1.5" x2="147.045" y2="-1.5" transform="matrix(0.278524 -0.960429 0.962008 0.273022 300.781 221.329)" stroke="#7268DC" stroke-width="3"/>
<line y1="-1.5" x2="106.385" y2="-1.5" transform="matrix(0.747952 -0.663752 0.671742 0.740785 302.536 221.329)" stroke="#7268DC" stroke-width="3"/>
<line y1="-1.5" x2="108.921" y2="-1.5" transform="matrix(0.923913 0.382601 -0.389696 0.920943 302.536 225.381)" stroke="#7268DC" stroke-width="3"/>
<line y1="-1.5" x2="65.7752" y2="-1.5" transform="matrix(0.382491 0.923959 -0.926829 0.375483 352.119 314.516)" stroke="#7268DC" stroke-width="3"/>
<line y1="-1.5" x2="64.6602" y2="-1.5" transform="matrix(0.732931 -0.680303 0.68816 0.725558 352.119 312.201)" stroke="#7268DC" stroke-width="3"/>
<line y1="-1.5" x2="120.279" y2="-1.5" transform="matrix(-0.491298 -0.870991 0.875468 -0.483275 268.166 309.307)" stroke="#7268DC" stroke-width="3"/>
<line y1="-1.5" x2="97.796" y2="-1.5" transform="matrix(-0.801675 -0.597759 0.606047 -0.795429 268.166 309.307)" stroke="#7268DC" stroke-width="3"/>
<line y1="-1.5" x2="45.9806" y2="-1.5" transform="matrix(-0.394459 0.918913 -0.92195 -0.387309 205.562 206.281)" stroke="#7268DC" stroke-width="3"/>
<line y1="-1.5" x2="95.5414" y2="-1.5" transform="matrix(0.979813 0.199916 -0.2041 0.97895 209.073 203.966)" stroke="#7268DC" stroke-width="3"/>
<line y1="-1.5" x2="89.7712" y2="-1.5" transform="matrix(0.371495 -0.928435 0.931155 0.364624 265.676 306.413)" stroke="#7268DC" stroke-width="3"/>
<line x1="262.166" y1="310.701" x2="358.119" y2="310.701" stroke="#7268DC" stroke-width="3"/>
<line y1="-1.5" x2="98.8927" y2="-1.5" transform="matrix(0.556132 0.831094 -0.83658 0.547845 300.781 225.381)" stroke="#7268DC" stroke-width="3"/>
<line y1="-1.5" x2="164.488" y2="-1.5" transform="matrix(-0.149393 0.988778 -0.989244 -0.146271 95.2808 -120.739)" stroke="#7268DC" stroke-width="3"/>
</svg>
