<svg width="360" height="478" viewBox="0 0 360 478" fill="none" xmlns="http://www.w3.org/2000/svg">
<circle cx="170.716" cy="29.6161" r="5.49857" fill="#21C9AD"/>
<circle cx="30.8596" cy="51.0315" r="5.49857" fill="#21C9AD"/>
<circle cx="175.819" cy="148.848" r="5.49857" fill="#21C9AD"/>
<circle cx="253.851" cy="160.424" r="5.49857" fill="#21C9AD"/>
<circle cx="302.837" cy="99.0716" r="5.49857" fill="#21C9AD"/>
<circle cx="173.032" cy="229.301" r="5.49857" fill="#21C9AD"/>
<circle cx="192.499" cy="316.12" r="5.49857" fill="#21C9AD"/>
<circle cx="308.046" cy="398.888" r="5.49857" fill="#21C9AD"/>
<circle cx="350.086" cy="250.137" r="5.49857" fill="#21C9AD"/>
<circle cx="261.427" cy="250.137" r="5.49857" fill="#21C9AD"/>
<circle cx="15.2321" cy="148.848" r="5.49857" fill="#21C9AD"/>
<line x1="29.8842" y1="52.2509" x2="110.337" y2="-73.9268" stroke="#21C9AD" stroke-width="3"/>
<line x1="29.8413" y1="51.4769" x2="-4.30771" y2="-9.29672" stroke="#21C9AD" stroke-width="3"/>
<line x1="30.9072" y1="52.1557" x2="176.185" y2="28.4251" stroke="#21C9AD" stroke-width="3"/>
<line x1="31.3661" y1="52.3647" x2="183.011" y2="147.287" stroke="#21C9AD" stroke-width="3"/>
<line x1="171.923" y1="29.8012" x2="180.026" y2="146.139" stroke="#21C9AD" stroke-width="3"/>
<line x1="17.8367" y1="149.374" x2="184.53" y2="149.374" stroke="#21C9AD" stroke-width="3"/>
<line x1="14.0389" y1="148.331" x2="29.0876" y2="50.514" stroke="#21C9AD" stroke-width="3"/>
<line x1="212.376" y1="-103.933" x2="171.86" y2="27.4535" stroke="#21C9AD" stroke-width="3"/>
<line x1="294.414" y1="-35.9099" x2="171.13" y2="29.4941" stroke="#21C9AD" stroke-width="3"/>
<line x1="258.324" y1="160.982" x2="169.189" y2="30.7526" stroke="#21C9AD" stroke-width="3"/>
<line x1="252.088" y1="159.856" x2="288.552" y2="-32.8834" stroke="#21C9AD" stroke-width="3"/>
<line x1="413.4" y1="177.573" x2="301.692" y2="100.014" stroke="#21C9AD" stroke-width="3"/>
<line x1="360.836" y1="251.579" x2="252.601" y2="161.287" stroke="#21C9AD" stroke-width="3"/>
<line x1="265.97" y1="250.655" x2="252.079" y2="160.363" stroke="#21C9AD" stroke-width="3"/>
<line x1="420.106" y1="177.834" x2="257.464" y2="161.627" stroke="#21C9AD" stroke-width="3"/>
<line x1="407.48" y1="-9.02931" x2="254.678" y2="161.137" stroke="#21C9AD" stroke-width="3"/>
<line x1="168.246" y1="229.483" x2="174.034" y2="148.452" stroke="#21C9AD" stroke-width="3"/>
<line x1="168.805" y1="228.419" x2="255.625" y2="158.963" stroke="#21C9AD" stroke-width="3"/>
<line x1="193.77" y1="316.832" x2="168.303" y2="230.012" stroke="#21C9AD" stroke-width="3"/>
<line x1="270.144" y1="251.895" x2="171.169" y2="231.058" stroke="#21C9AD" stroke-width="3"/>
<line x1="266.144" y1="251.539" x2="193.216" y2="317.522" stroke="#21C9AD" stroke-width="3"/>
<line x1="357.069" y1="251.221" x2="309.029" y2="328.201" stroke="#21C9AD" stroke-width="3"/>
<line x1="348.597" y1="249.527" x2="404.161" y2="175.441" stroke="#21C9AD" stroke-width="3"/>
<line x1="436.911" y1="311.849" x2="351.249" y2="251.654" stroke="#21C9AD" stroke-width="3"/>
<path d="M259.962 250.156L308.581 326.828L308.581 398.328" stroke="#21C9AD" stroke-width="3"/>
<path d="M449.214 311.49L313.178 327.407L192.229 317.278" stroke="#21C9AD" stroke-width="3"/>
<line x1="307.964" y1="397.113" x2="394.784" y2="409.268" stroke="#21C9AD" stroke-width="3"/>
<path d="M557.66 251.753L443.484 310.911L308.198 399.346" stroke="#21C9AD" stroke-width="3"/>
</svg>
