<svg width="24" height="24" viewBox="0 0 24 24" fill="none" xmlns="http://www.w3.org/2000/svg">
<g clip-path="url(#clip0_569_1096)">
<path d="M5.61351 21.7334C4.51098 21.7335 3.45261 21.3001 2.66684 20.5267L2.58017 20.44C2.18538 20.0548 1.87168 19.5945 1.65758 19.0861C1.44347 18.5777 1.33328 18.0317 1.33351 17.48C1.33211 16.8829 1.44925 16.2913 1.67812 15.7398C1.907 15.1882 2.24306 14.6875 2.66684 14.2667L13.0002 4.04672C14.0501 2.95356 15.4874 2.31655 17.0024 2.27291C18.5175 2.22926 19.9891 2.78248 21.1002 3.81338C21.6013 4.31325 21.9979 4.90786 22.2669 5.56255C22.5358 6.21725 22.6718 6.91894 22.6668 7.62672C22.6609 8.41719 22.4988 9.19869 22.1899 9.92633C21.881 10.654 21.4314 11.3134 20.8668 11.8667L11.5802 21.0667C11.5224 21.1444 11.4485 21.2085 11.3635 21.2547C11.2785 21.3009 11.1844 21.3281 11.0879 21.3343C10.9913 21.3405 10.8945 21.3256 10.8043 21.2906C10.7141 21.2557 10.6326 21.2015 10.5654 21.1319C10.4982 21.0622 10.447 20.9788 10.4153 20.8874C10.3836 20.796 10.3722 20.6987 10.3818 20.6025C10.3915 20.5062 10.422 20.4132 10.4712 20.3299C10.5204 20.2465 10.5872 20.175 10.6668 20.12L19.9268 10.92C20.3666 10.4908 20.7173 9.97885 20.9587 9.41369C21.2001 8.84852 21.3274 8.24124 21.3335 7.62672C21.3383 7.09488 21.2371 6.56742 21.0356 6.0752C20.8341 5.58298 20.5365 5.13587 20.1602 4.76005C19.2987 3.97529 18.1636 3.56006 16.9991 3.6037C15.8346 3.64734 14.7338 4.14635 13.9335 4.99338L3.63351 15.2134C3.32998 15.5081 3.08818 15.8603 2.92221 16.2495C2.75625 16.6387 2.66944 17.057 2.66684 17.48C2.66542 17.8515 2.73775 18.2196 2.87966 18.5629C3.02156 18.9062 3.23021 19.218 3.49351 19.48L3.58017 19.5667C4.17668 20.116 4.96501 20.4091 5.77547 20.3829C6.58593 20.3567 7.35371 20.0134 7.91351 19.4267L16.8135 10.6267C16.9818 10.4565 17.1145 10.2545 17.2038 10.0324C17.2931 9.81036 17.3372 9.57271 17.3335 9.33338C17.335 9.12552 17.2951 8.91943 17.2161 8.72715C17.1371 8.53486 17.0207 8.36021 16.8735 8.21338C16.5368 7.90466 16.0923 7.7407 15.6358 7.75692C15.1792 7.77313 14.7474 7.96821 14.4335 8.30005L8.30017 14.38C8.17464 14.5047 8.00473 14.5744 7.82782 14.5738C7.65091 14.5731 7.48149 14.5023 7.35684 14.3767C7.23219 14.2512 7.16251 14.0813 7.16314 13.9044C7.16376 13.7274 7.23464 13.558 7.36017 13.4334L13.5202 7.33338C14.0848 6.75493 14.8542 6.42164 15.6624 6.40543C16.4706 6.38922 17.2528 6.69138 17.8402 7.24672C18.1103 7.52171 18.3226 7.84803 18.4646 8.20642C18.6066 8.5648 18.6754 8.94799 18.6668 9.33338C18.6661 9.7484 18.5826 10.1591 18.4212 10.5414C18.2598 10.9238 18.0237 11.2701 17.7268 11.56L8.85351 20.3867C7.99344 21.2454 6.82887 21.7295 5.61351 21.7334Z" fill="url(#paint0_linear_569_1096)"/>
</g>
<defs>
<linearGradient id="paint0_linear_569_1096" x1="-9.09506" y1="11.9988" x2="10.0666" y2="33.0021" gradientUnits="userSpaceOnUse">
<stop stop-color="#6B65DE"/>
<stop offset="1" stop-color="#E89DE7"/>
</linearGradient>
<clipPath id="clip0_569_1096">
<rect width="24" height="24" fill="white"/>
</clipPath>
</defs>
</svg>
