<svg width="24" height="24" viewBox="0 0 24 24" fill="none" xmlns="http://www.w3.org/2000/svg">
<path d="M21 6.66564C20.8235 6.75707 20.6178 6.77465 20.4283 6.71453C20.2388 6.65441 20.0809 6.5215 19.9894 6.34502C19.2735 4.93079 18.1899 3.73549 16.8525 2.88471C16.7692 2.83214 16.697 2.76367 16.6401 2.6832C16.5832 2.60274 16.5427 2.51186 16.521 2.41575C16.4992 2.31964 16.4966 2.22018 16.5133 2.12306C16.5299 2.02594 16.5656 1.93306 16.6181 1.84971C16.6707 1.76636 16.7392 1.69418 16.8196 1.63729C16.9001 1.58041 16.991 1.53993 17.0871 1.51816C17.1832 1.4964 17.2827 1.49378 17.3798 1.51045C17.4769 1.52712 17.5698 1.56276 17.6531 1.61533C19.2118 2.61333 20.4775 4.00742 21.3206 5.65502C21.4121 5.83157 21.4296 6.03719 21.3695 6.2267C21.3094 6.41621 21.1765 6.57409 21 6.66564ZM3.34783 6.75002C3.48523 6.74996 3.61998 6.71216 3.73736 6.64074C3.85474 6.56932 3.95025 6.46702 4.01346 6.34502C4.72933 4.93079 5.81291 3.73549 7.15033 2.88471C7.23368 2.83214 7.30586 2.76367 7.36274 2.6832C7.41963 2.60274 7.46011 2.51186 7.48187 2.41575C7.50364 2.31964 7.50626 2.22018 7.48959 2.12306C7.47291 2.02594 7.43727 1.93306 7.38471 1.84971C7.33214 1.76636 7.26366 1.69418 7.1832 1.63729C7.10274 1.58041 7.01186 1.53993 6.91575 1.51816C6.81964 1.4964 6.72018 1.49378 6.62306 1.51045C6.52594 1.52712 6.43305 1.56276 6.34971 1.61533C4.79102 2.61333 3.52537 4.00742 2.68221 5.65502C2.62299 5.76932 2.59419 5.89693 2.59858 6.02559C2.60297 6.15424 2.6404 6.2796 2.70726 6.3896C2.77413 6.49959 2.86818 6.59053 2.98037 6.65366C3.09256 6.71678 3.2191 6.74997 3.34783 6.75002ZM20.7947 16.4944C20.9276 16.7222 20.998 16.9811 20.9989 17.2449C20.9998 17.5086 20.9312 17.768 20.7999 17.9967C20.6686 18.2255 20.4793 18.4156 20.251 18.5478C20.0228 18.6801 19.7638 18.7498 19.5 18.75H15.675C15.5029 19.5977 15.043 20.3599 14.3732 20.9073C13.7035 21.4547 12.865 21.7538 12 21.7538C11.135 21.7538 10.2966 21.4547 9.62682 20.9073C8.95707 20.3599 8.49715 19.5977 8.32502 18.75H4.50002C4.23641 18.7495 3.9776 18.6795 3.74965 18.5471C3.5217 18.4147 3.33266 18.2246 3.20158 17.9959C3.0705 17.7672 3.002 17.508 3.00299 17.2444C3.00398 16.9808 3.07441 16.7221 3.20721 16.4944C4.05189 15.0366 4.50002 12.9638 4.50002 10.5C4.50002 8.5109 5.29019 6.60324 6.69672 5.19672C8.10324 3.7902 10.0109 3.00002 12 3.00002C13.9891 3.00002 15.8968 3.7902 17.3033 5.19672C18.7098 6.60324 19.5 8.5109 19.5 10.5C19.5 12.9628 19.9481 15.0356 20.7947 16.4944ZM14.1206 18.75H9.87939C10.0348 19.1882 10.3221 19.5675 10.7018 19.8358C11.0816 20.104 11.5351 20.2481 12 20.2481C12.465 20.2481 12.9185 20.104 13.2982 19.8358C13.6779 19.5675 13.9653 19.1882 14.1206 18.75ZM19.5 17.25C18.5025 15.5372 18 13.2666 18 10.5C18 8.90872 17.3679 7.3826 16.2427 6.25738C15.1174 5.13216 13.5913 4.50002 12 4.50002C10.4087 4.50002 8.8826 5.13216 7.75738 6.25738C6.63216 7.3826 6.00002 8.90872 6.00002 10.5C6.00002 13.2675 5.49564 15.5381 4.50002 17.25H19.5Z" fill="#7268DC"/>
</svg>
