<svg width="24" height="24" viewBox="0 0 24 24" fill="none" xmlns="http://www.w3.org/2000/svg">
<path fill-rule="evenodd" clip-rule="evenodd" d="M12 4C14.0228 4 15.5252 4.09312 16.6588 4.31121C17.7823 4.52735 18.3936 4.83908 18.7656 5.16702C19.4911 5.80651 20 7.13096 20 10.8889C20 13.2816 19.7741 14.7999 19.3289 15.6828C19.1342 16.0689 18.9255 16.2737 18.7076 16.4007C18.4783 16.5344 18.0919 16.6667 17.4169 16.6667C16.167 16.6667 15.125 16.9503 14.2669 17.5318C13.4447 18.0889 12.9696 18.8076 12.6817 19.2606L12.5842 19.4142C12.3265 19.8203 12.2672 19.9138 12.192 19.9837C12.1673 19.9895 12.1079 20 12.0003 20C11.8926 20 11.8332 19.9895 11.8086 19.9837C11.7333 19.9138 11.674 19.8203 11.4164 19.4143L11.3187 19.2605C11.0308 18.8075 10.5557 18.0888 9.73348 17.5317C8.87535 16.9503 7.83335 16.6667 6.58354 16.6667C5.91903 16.6667 5.53721 16.5328 5.3083 16.3966C5.08749 16.2651 4.87334 16.0514 4.67442 15.6535C4.2244 14.7533 4 13.2276 4 10.8889C4 7.18344 4.50574 5.84748 5.2406 5.19426C5.61677 4.85989 6.23127 4.54279 7.35097 4.3216C8.48146 4.09827 9.98134 4 12 4ZM11.796 19.9802C11.7951 19.98 11.7947 19.9798 11.7947 19.9798L11.7953 19.98L11.796 19.9802ZM12 2C20.235 2 22 3.48151 22 10.8889C22 15.7037 21.1669 18.6667 17.4169 18.6667C15.4129 18.6667 14.8167 19.6186 14.2616 20.5051C13.778 21.2774 13.3255 22 12.0002 22C10.675 22 10.2225 21.2774 9.73886 20.5051C9.18374 19.6186 8.58759 18.6667 6.58354 18.6667C2.83354 18.6667 2 15.609 2 10.8889C2 3.56889 3.765 2 12 2ZM8.66667 12C9.1269 12 9.5 11.6269 9.5 11.1667C9.5 10.7064 9.1269 10.3333 8.66667 10.3333C8.20643 10.3333 7.83333 10.7064 7.83333 11.1667C7.83333 11.6269 8.20643 12 8.66667 12ZM12.8333 11.1667C12.8333 11.6269 12.4602 12 12 12C11.5398 12 11.1667 11.6269 11.1667 11.1667C11.1667 10.7064 11.5398 10.3333 12 10.3333C12.4602 10.3333 12.8333 10.7064 12.8333 11.1667ZM15.3333 12C15.7936 12 16.1667 11.6269 16.1667 11.1667C16.1667 10.7064 15.7936 10.3333 15.3333 10.3333C14.8731 10.3333 14.5 10.7064 14.5 11.1667C14.5 11.6269 14.8731 12 15.3333 12Z" fill="white"/>
</svg>
