<svg width="24" height="24" viewBox="0 0 24 24" fill="none" xmlns="http://www.w3.org/2000/svg">
<path d="M14 5C14 4.46957 13.7893 3.96086 13.4142 3.58579C13.0391 3.21071 12.5304 3 12 3C11.4696 3 10.9609 3.21071 10.5858 3.58579C10.2107 3.96086 10 4.46957 10 5H14ZM8.5 5C8.5 4.54037 8.59053 4.08525 8.76642 3.66061C8.94231 3.23597 9.20012 2.85013 9.52513 2.52513C9.85013 2.20012 10.236 1.94231 10.6606 1.76642C11.0852 1.59053 11.5404 1.5 12 1.5C12.4596 1.5 12.9148 1.59053 13.3394 1.76642C13.764 1.94231 14.1499 2.20012 14.4749 2.52513C14.7999 2.85013 15.0577 3.23597 15.2336 3.66061C15.4095 4.08525 15.5 4.54037 15.5 5H21.25C21.4489 5 21.6397 5.07902 21.7803 5.21967C21.921 5.36032 22 5.55109 22 5.75C22 5.94891 21.921 6.13968 21.7803 6.28033C21.6397 6.42098 21.4489 6.5 21.25 6.5H19.93L19.428 11.695C18.9656 11.4612 18.4768 11.284 17.972 11.167L18.424 6.5H5.576L6.734 18.467C6.78794 19.0236 7.04724 19.5403 7.46137 19.9161C7.87549 20.292 8.41475 20.5001 8.974 20.5H10.732C11.0183 21.0486 11.3813 21.5537 11.81 22H8.974C8.04186 22.0001 7.1431 21.653 6.45295 21.0265C5.7628 20.3999 5.33073 19.5388 5.241 18.611L4.07 6.5H2.75C2.55109 6.5 2.36032 6.42098 2.21967 6.28033C2.07902 6.13968 2 5.94891 2 5.75C2 5.55109 2.07902 5.36032 2.21967 5.21967C2.36032 5.07902 2.55109 5 2.75 5H8.5ZM22 17.5C22 18.9587 21.4205 20.3576 20.3891 21.3891C19.3576 22.4205 17.9587 23 16.5 23C15.0413 23 13.6424 22.4205 12.6109 21.3891C11.5795 20.3576 11 18.9587 11 17.5C11 16.0413 11.5795 14.6424 12.6109 13.6109C13.6424 12.5795 15.0413 12 16.5 12C17.9587 12 19.3576 12.5795 20.3891 13.6109C21.4205 14.6424 22 16.0413 22 17.5ZM14.854 15.146C14.7601 15.0521 14.6328 14.9994 14.5 14.9994C14.3672 14.9994 14.2399 15.0521 14.146 15.146C14.0521 15.2399 13.9994 15.3672 13.9994 15.5C13.9994 15.6328 14.0521 15.7601 14.146 15.854L15.793 17.5L14.146 19.146C14.0521 19.2399 13.9994 19.3672 13.9994 19.5C13.9994 19.6328 14.0521 19.7601 14.146 19.854C14.2399 19.9479 14.3672 20.0006 14.5 20.0006C14.6328 20.0006 14.7601 19.9479 14.854 19.854L16.5 18.207L18.146 19.854C18.1925 19.9005 18.2477 19.9374 18.3084 19.9625C18.3692 19.9877 18.4343 20.0006 18.5 20.0006C18.5657 20.0006 18.6308 19.9877 18.6916 19.9625C18.7523 19.9374 18.8075 19.9005 18.854 19.854C18.9005 19.8075 18.9374 19.7523 18.9625 19.6916C18.9877 19.6308 19.0006 19.5657 19.0006 19.5C19.0006 19.4343 18.9877 19.3692 18.9625 19.3084C18.9374 19.2477 18.9005 19.1925 18.854 19.146L17.207 17.5L18.854 15.854C18.9479 15.7601 19.0006 15.6328 19.0006 15.5C19.0006 15.3672 18.9479 15.2399 18.854 15.146C18.7601 15.0521 18.6328 14.9994 18.5 14.9994C18.3672 14.9994 18.2399 15.0521 18.146 15.146L16.5 16.793L14.854 15.146Z" fill="white"/>
</svg>
