<svg width="25" height="24" viewBox="0 0 25 24" fill="none" xmlns="http://www.w3.org/2000/svg">
<path fill-rule="evenodd" clip-rule="evenodd" d="M12.271 7C7.87382 7 4.18688 10.2722 2.36485 12.2903C4.18688 14.3083 7.87382 17.5805 12.271 17.5805C16.6682 17.5805 20.3551 14.3083 22.1771 12.2903C20.3551 10.2722 16.6682 7 12.271 7ZM0.67273 11.1833C0.10909 11.8256 0.10909 12.7549 0.67273 13.3973C2.4622 15.4366 6.77461 19.5805 12.271 19.5805C17.7674 19.5805 22.0798 15.4366 23.8693 13.3973C24.4329 12.7549 24.4329 11.8256 23.8693 11.1833C22.0798 9.14391 17.7674 5 12.271 5C6.77461 5 2.4622 9.14391 0.67273 11.1833ZM7.39802 12.9974C7.0075 12.6068 7.0075 11.9737 7.39802 11.5832C7.78854 11.1926 8.42171 11.1926 8.81223 11.5832C10.8518 13.6227 13.6902 13.6227 15.7298 11.5832C16.1203 11.1926 16.7534 11.1926 17.144 11.5832C17.5345 11.9737 17.5345 12.6068 17.144 12.9974C14.3234 15.818 10.2186 15.818 7.39802 12.9974Z" fill="#D8D8D8" fill-opacity="0.2"/>
</svg>
