<svg width="24" height="24" viewBox="0 0 24 24" fill="none" xmlns="http://www.w3.org/2000/svg">
<path fill-rule="evenodd" clip-rule="evenodd" d="M21 12.2089C21 11.5572 20.9415 10.9305 20.8329 10.3289H12.1763V13.8843H17.1229C16.9098 15.0332 16.2623 16.0066 15.2888 16.6584V18.9646H18.2593C19.9973 17.3645 21 15.0081 21 12.2089Z" fill="#4285F4"/>
<path fill-rule="evenodd" clip-rule="evenodd" d="M12.1759 21.1914C14.6576 21.1914 16.7382 20.3683 18.2589 18.9646L15.2884 16.6583C14.4654 17.2098 13.4126 17.5357 12.1759 17.5357C9.78196 17.5357 7.75567 15.9189 7.03289 13.7463H3.96213V16.1277C5.47453 19.1317 8.5829 21.1914 12.1759 21.1914Z" fill="#34A853"/>
<path fill-rule="evenodd" clip-rule="evenodd" d="M7.03326 13.7463C6.84943 13.1949 6.74498 12.6058 6.74498 12C6.74498 11.3942 6.84943 10.8051 7.03326 10.2536V7.87219H3.96249C3.33999 9.11303 2.98486 10.5168 2.98486 12C2.98486 13.4831 3.33999 14.8869 3.96249 16.1277L7.03326 13.7463Z" fill="#FBBC05"/>
<path fill-rule="evenodd" clip-rule="evenodd" d="M12.1759 6.46427C13.5254 6.46427 14.737 6.92802 15.6895 7.8388L18.3258 5.20254C16.734 3.71938 14.6534 2.80859 12.1759 2.80859C8.5829 2.80859 5.47453 4.8683 3.96213 7.87222L7.03289 10.2536C7.75567 8.08112 9.78196 6.46427 12.1759 6.46427Z" fill="#EA4335"/>
</svg>