<svg width="24" height="24" viewBox="0 0 24 24" fill="none" xmlns="http://www.w3.org/2000/svg">
<path fill-rule="evenodd" clip-rule="evenodd" d="M14.7199 21.8624C14.4532 21.8852 14.1872 21.9051 13.922 21.9223C12.3069 22.0266 10.7161 22.0259 9.11778 21.9203C8.85208 21.9027 8.58617 21.8823 8.31992 21.8589C8.05365 21.8355 7.78703 21.8093 7.51992 21.7801C7.22076 21.7474 6.92097 21.7111 6.62036 21.6712C4.13805 21.3414 2.96161 20.3509 2.50806 18.1919C1.68579 14.2777 1.90811 10.8001 2.09698 9.49374C2.23186 8.56081 6.99773 4.74617 9.71146 2.64149C10.8099 1.78957 12.3036 1.78572 13.4055 2.6327C16.1421 4.7361 20.9546 8.56148 21.0139 9.49374C21.0157 9.52314 21.0177 9.55365 21.0197 9.58525C21.1073 10.9545 21.3255 14.366 20.6024 18.1919C20.1914 20.3664 18.9732 21.3481 16.49 21.6712C16.1652 21.7134 15.8419 21.7516 15.5199 21.7857C15.2524 21.8141 14.9858 21.8396 14.7199 21.8624ZM15.5199 20.1101C15.7761 20.0819 16.0333 20.051 16.2918 20.0173C17.3945 19.8739 17.9836 19.6091 18.3212 19.3265C18.6187 19.0776 18.8789 18.6832 19.0325 17.87C19.6755 14.4678 19.529 11.4 19.4382 9.93363C19.3545 9.82848 19.2291 9.68542 19.0542 9.50338C18.6052 9.03626 17.958 8.44405 17.1948 7.78743C15.6765 6.48114 13.8172 5.02045 12.4555 3.97379C11.9208 3.5628 11.2008 3.56429 10.667 3.97831C9.31636 5.02581 7.47251 6.48547 5.95693 7.79129C5.19558 8.44727 4.54404 9.0414 4.08514 9.51251C3.88048 9.72262 3.73688 9.88519 3.6454 10.0011C3.48912 11.3281 3.34995 14.4029 4.07107 17.8356C4.245 18.6635 4.51036 19.0687 4.8115 19.3232C5.14593 19.6059 5.72522 19.8721 6.82281 20.0179C7.05577 20.0489 7.2881 20.0775 7.51992 20.1039V15.4283C7.51992 14.7403 7.84141 14.1216 8.25361 13.6913C8.66571 13.2611 9.25911 12.9246 9.91992 12.9246H13.1199C13.7807 12.9246 14.3741 13.2611 14.7862 13.6913C15.1984 14.1216 15.5199 14.7403 15.5199 15.4283V20.1101ZM9.11992 20.2503C10.7162 20.3603 12.3041 20.3611 13.9199 20.2524V15.4283C13.9199 15.2811 13.8414 15.0646 13.6536 14.8685C13.4657 14.6724 13.2591 14.5913 13.1199 14.5913H9.91992C9.78073 14.5913 9.57413 14.6724 9.38623 14.8685C9.19843 15.0646 9.11992 15.2811 9.11992 15.4283V20.2503Z" fill="white"/>
</svg>
