<svg width="24" height="24" viewBox="0 0 24 24" fill="none" xmlns="http://www.w3.org/2000/svg">
<path d="M12 22C7.286 22 4.929 22 3.464 20.535C2 19.072 2 16.714 2 12C2 7.286 2 4.929 3.464 3.464C4.93 2 7.286 2 12 2C16.714 2 19.071 2 20.535 3.464C22 4.93 22 7.286 22 12C22 16.714 22 19.071 20.535 20.535C19.072 22 16.714 22 12 22Z" stroke="white" stroke-width="1.5"/>
<path d="M5.5 8.757C5.5 6.958 7.067 5.5 9 5.5C10.933 5.5 12.5 6.958 12.5 8.757C12.5 10.542 11.383 12.625 9.64 13.37C9.43757 13.4559 9.21991 13.5002 9 13.5002C8.78009 13.5002 8.56243 13.4559 8.36 13.37C6.617 12.625 5.5 10.542 5.5 8.757Z" stroke="white" stroke-width="1.5"/>
<path d="M14 14L20.5 20.5M14 14L6.39502 21.605M14 14L21.607 6.39404" stroke="white" stroke-width="1.5" stroke-linecap="round"/>
<path d="M10 9C10 9.26522 9.89464 9.51957 9.70711 9.70711C9.51957 9.89464 9.26522 10 9 10C8.73478 10 8.48043 9.89464 8.29289 9.70711C8.10536 9.51957 8 9.26522 8 9C8 8.73478 8.10536 8.48043 8.29289 8.29289C8.48043 8.10536 8.73478 8 9 8C9.26522 8 9.51957 8.10536 9.70711 8.29289C9.89464 8.48043 10 8.73478 10 9Z" fill="white"/>
</svg>
