<svg width="25" height="24" viewBox="0 0 25 24" fill="none" xmlns="http://www.w3.org/2000/svg">
<path d="M12.5502 6.5C14.4579 6.49389 16.3286 7.00678 17.9474 7.97973C19.5661 8.95267 20.8672 10.3462 21.7009 12C19.9891 15.37 16.4927 17.5 12.5502 17.5C8.60769 17.5 5.11132 15.37 3.39945 12C4.2332 10.3462 5.53424 8.95267 7.15299 7.97973C8.77175 7.00678 10.6425 6.49389 12.5502 6.5ZM12.5502 4.5C7.36269 4.5 2.93257 7.61 1.1377 12C2.93257 16.39 7.36269 19.5 12.5502 19.5C17.7377 19.5 22.1678 16.39 23.9627 12C22.1678 7.61 17.7377 4.5 12.5502 4.5ZM12.5502 9.5C13.2381 9.5 13.8978 9.76339 14.3843 10.2322C14.8707 10.7011 15.1439 11.337 15.1439 12C15.1439 12.663 14.8707 13.2989 14.3843 13.7678C13.8978 14.2366 13.2381 14.5 12.5502 14.5C11.8623 14.5 11.2026 14.2366 10.7161 13.7678C10.2297 13.2989 9.95644 12.663 9.95644 12C9.95644 11.337 10.2297 10.7011 10.7161 10.2322C11.2026 9.76339 11.8623 9.5 12.5502 9.5ZM12.5502 7.5C9.97719 7.5 7.88144 9.52 7.88144 12C7.88144 14.48 9.97719 16.5 12.5502 16.5C15.1232 16.5 17.2189 14.48 17.2189 12C17.2189 9.52 15.1232 7.5 12.5502 7.5Z" fill="white"/>
</svg>
