<svg width="21" height="21" viewBox="0 0 21 21" fill="none" xmlns="http://www.w3.org/2000/svg">
<path fill-rule="evenodd" clip-rule="evenodd" d="M10.75 5.16667C9.2167 5.16667 7.9077 5.21256 6.79263 5.32712C6.92958 4.28489 7.38413 3.52429 7.97686 2.99741C8.70883 2.34677 9.71307 2 10.75 2C11.7869 2 12.7912 2.34677 13.5231 2.99741C14.1159 3.52429 14.5704 4.28489 14.7074 5.32712C13.5923 5.21256 12.2833 5.16667 10.75 5.16667ZM14.8519 1.50259C15.9462 2.47535 16.6635 3.88724 16.7427 5.66833C19.92 6.47781 20.75 8.43127 20.75 12.6667C20.75 18.8429 18.985 20.1667 10.75 20.1667C2.515 20.1667 0.75 18.8429 0.75 12.6667C0.75 8.43127 1.58001 6.47781 4.75731 5.66833C4.83651 3.88724 5.55378 2.47535 6.64814 1.50259C7.79117 0.486564 9.28693 0 10.75 0C12.2131 0 13.7088 0.486564 14.8519 1.50259ZM3.86188 17.1328C3.23814 16.665 2.75 15.7377 2.75 12.6667C2.75 9.59563 3.23814 8.66838 3.86188 8.20057C4.23969 7.91721 4.88051 7.63642 6.04219 7.44279C7.20112 7.24962 8.72462 7.16667 10.75 7.16667C12.7754 7.16667 14.2989 7.24962 15.4578 7.44279C16.6195 7.63642 17.2603 7.91721 17.6381 8.20057C18.2619 8.66838 18.75 9.59563 18.75 12.6667C18.75 15.7377 18.2619 16.665 17.6381 17.1328C17.2603 17.4161 16.6195 17.6969 15.4578 17.8905C14.2989 18.0837 12.7754 18.1667 10.75 18.1667C8.72462 18.1667 7.20112 18.0837 6.04219 17.8905C4.88051 17.6969 4.23969 17.4161 3.86188 17.1328ZM10.25 12.6667C10.25 12.9428 10.4739 13.1667 10.75 13.1667C11.0261 13.1667 11.25 12.9428 11.25 12.6667C11.25 12.3905 11.0261 12.1667 10.75 12.1667C10.4739 12.1667 10.25 12.3905 10.25 12.6667ZM8.25 12.6667C8.25 14.0474 9.36929 15.1667 10.75 15.1667C12.1307 15.1667 13.25 14.0474 13.25 12.6667C13.25 11.286 12.1307 10.1667 10.75 10.1667C9.36929 10.1667 8.25 11.286 8.25 12.6667Z" fill="white"/>
</svg>
