<svg width="20" height="20" viewBox="0 0 20 20" fill="none" xmlns="http://www.w3.org/2000/svg">
<path fill-rule="evenodd" clip-rule="evenodd" d="M6.41637 5C6.41637 6.933 7.98337 8.5 9.91637 8.5C11.8494 8.5 13.4164 6.933 13.4164 5C13.4164 3.067 11.8494 1.5 9.91637 1.5C7.98337 1.5 6.41637 3.067 6.41637 5ZM4.91637 5C4.91637 7.76142 7.15495 10 9.91637 10C12.6778 10 14.9164 7.76142 14.9164 5C14.9164 2.23858 12.6778 0 9.91637 0C7.15495 0 4.91637 2.23858 4.91637 5ZM2.25 15.8333C2.25 16.6011 2.34584 17.0226 2.4683 17.2731C2.563 17.4668 2.71737 17.6533 3.12326 17.8378C3.57816 18.0446 4.29897 18.2227 5.45051 18.3391C6.58767 18.4539 8.04432 18.5 9.91667 18.5C11.789 18.5 13.2457 18.4539 14.3828 18.3391C15.5344 18.2227 16.2552 18.0446 16.7101 17.8378C17.116 17.6533 17.2703 17.4668 17.365 17.2731C17.4875 17.0226 17.5833 16.6011 17.5833 15.8333C17.5833 15.0656 17.4875 14.6441 17.365 14.3936C17.2703 14.1999 17.116 14.0133 16.7101 13.8288C16.2552 13.6221 15.5344 13.4439 14.3828 13.3276C13.2457 13.2127 11.789 13.1667 9.91667 13.1667C8.04432 13.1667 6.58767 13.2127 5.45051 13.3276C4.29897 13.4439 3.57816 13.6221 3.12326 13.8288C2.71737 14.0133 2.563 14.1999 2.4683 14.3936C2.34584 14.6441 2.25 15.0656 2.25 15.8333ZM0.75 15.8333C0.75 19.2646 2.36792 20 9.91667 20C17.4654 20 19.0833 19.2646 19.0833 15.8333C19.0833 12.4021 17.4654 11.6667 9.91667 11.6667C2.36792 11.6667 0.75 12.4021 0.75 15.8333Z" fill="white"/>
</svg>

