<svg width="28" height="31" viewBox="0 0 28 31" fill="none" xmlns="http://www.w3.org/2000/svg">
<path d="M2 29H25.04L26.04 31H3L2 29Z" fill="url(#paint0_linear_0_1)"/>
<path fill-rule="evenodd" clip-rule="evenodd" d="M13.6665 5C13.6665 6.933 15.2335 8.5 17.1665 8.5C19.0995 8.5 20.6665 6.933 20.6665 5C20.6665 3.067 19.0995 1.5 17.1665 1.5C15.2335 1.5 13.6665 3.067 13.6665 5ZM12.1665 5C12.1665 7.76142 14.4051 10 17.1665 10C19.9279 10 22.1665 7.76142 22.1665 5C22.1665 2.23858 19.9279 0 17.1665 0C14.4051 0 12.1665 2.23858 12.1665 5ZM18.5002 20.25C18.086 20.25 17.7502 19.9142 17.7502 19.5C17.7502 19.0858 18.086 18.75 18.5002 18.75C20.3908 18.75 21.7985 18.735 22.8567 18.6614C23.9325 18.5866 24.5526 18.4553 24.9227 18.2774C25.2255 18.1319 25.3608 17.9587 25.4501 17.6472C25.5605 17.2619 25.5835 16.7131 25.5835 15.8333C25.5835 15.019 25.4731 14.5487 25.2943 14.2521C25.1358 13.989 24.8653 13.7681 24.288 13.6001C23.6881 13.4255 22.8363 13.3319 21.616 13.2878C20.5374 13.2488 19.2232 13.2493 17.6101 13.2499H17.61L17.0002 13.25C16.586 13.25 16.2502 12.9142 16.2502 12.5C16.2502 12.0858 16.586 11.75 17.0002 11.75L17.6125 11.7498H17.6126C19.2178 11.7492 20.5622 11.7487 21.6702 11.7888C22.9076 11.8335 23.9174 11.93 24.7072 12.1598C25.5197 12.3963 26.1671 12.7942 26.5791 13.4778C26.9708 14.1279 27.0835 14.932 27.0835 15.8333C27.0835 16.6692 27.0708 17.4366 26.892 18.0605C26.6921 18.7581 26.2844 19.2871 25.5725 19.6293C24.9279 19.9392 24.0615 20.0812 22.9608 20.1578C21.8426 20.2356 20.384 20.25 18.5002 20.25Z" fill="url(#paint1_linear_0_1)"/>
<path fill-rule="evenodd" clip-rule="evenodd" d="M5.66637 8C5.66637 9.933 7.23337 11.5 9.16637 11.5C11.0994 11.5 12.6664 9.933 12.6664 8C12.6664 6.067 11.0994 4.5 9.16637 4.5C7.23337 4.5 5.66637 6.067 5.66637 8ZM4.16637 8C4.16637 10.7614 6.40495 13 9.16637 13C11.9278 13 14.1664 10.7614 14.1664 8C14.1664 5.23858 11.9278 3 9.16637 3C6.40495 3 4.16637 5.23858 4.16637 8ZM1.5 18.8333C1.5 19.6011 1.59584 20.0226 1.7183 20.2731C1.813 20.4668 1.96737 20.6533 2.37326 20.8378C2.82816 21.0446 3.54897 21.2227 4.70051 21.3391C5.83767 21.4539 7.29432 21.5 9.16667 21.5C11.039 21.5 12.4957 21.4539 13.6328 21.3391C14.7844 21.2227 15.5052 21.0446 15.9601 20.8378C16.366 20.6533 16.5203 20.4668 16.615 20.2731C16.7375 20.0226 16.8333 19.6011 16.8333 18.8333C16.8333 18.0656 16.7375 17.6441 16.615 17.3936C16.5203 17.1999 16.366 17.0133 15.9601 16.8288C15.5052 16.6221 14.7844 16.4439 13.6328 16.3276C12.4957 16.2127 11.039 16.1667 9.16667 16.1667C7.29432 16.1667 5.83767 16.2127 4.70051 16.3276C3.54897 16.4439 2.82816 16.6221 2.37326 16.8288C1.96737 17.0133 1.813 17.1999 1.7183 17.3936C1.59584 17.6441 1.5 18.0656 1.5 18.8333ZM0 18.8333C0 22.2646 1.61792 23 9.16667 23C16.7154 23 18.3333 22.2646 18.3333 18.8333C18.3333 15.4021 16.7154 14.6667 9.16667 14.6667C1.61792 14.6667 0 15.4021 0 18.8333Z" fill="url(#paint2_linear_0_1)"/>
<defs>
<linearGradient id="paint0_linear_0_1" x1="-9.75161" y1="29.9997" x2="-9.42486" y2="33.9272" gradientUnits="userSpaceOnUse">
<stop stop-color="#6B65DE"/>
<stop offset="1" stop-color="#E89DE7"/>
</linearGradient>
<linearGradient id="paint1_linear_0_1" x1="4.87456" y1="10.1217" x2="23.995" y2="24.2066" gradientUnits="userSpaceOnUse">
<stop stop-color="#6B65DE"/>
<stop offset="1" stop-color="#E89DE7"/>
</linearGradient>
<linearGradient id="paint2_linear_0_1" x1="-8.96198" y1="12.9967" x2="10.7368" y2="31.054" gradientUnits="userSpaceOnUse">
<stop stop-color="#6B65DE"/>
<stop offset="1" stop-color="#E89DE7"/>
</linearGradient>
</defs>
</svg>
