<svg width="24" height="24" viewBox="0 0 24 24" fill="none" xmlns="http://www.w3.org/2000/svg">
<path d="M20.422 17.883L20.951 18.415L20.421 17.883H20.422ZM7.81599 15.727L8.34399 15.195L7.81499 15.727H7.81599ZM3.68999 5.13496L3.16199 4.60396L3.69099 5.13596L3.68999 5.13496ZM15.628 14.891L16.085 14.438L15.026 13.374L14.572 13.827L15.628 14.891ZM17.614 14.248L19.525 15.287L20.24 13.969L18.33 12.931L17.614 14.248ZM19.892 17.351L18.472 18.764L19.529 19.827L20.949 18.415L19.892 17.351ZM17.606 19.218C16.156 19.354 12.406 19.233 8.34399 15.195L7.28599 16.258C11.718 20.665 15.937 20.881 17.746 20.712L17.605 19.218H17.606ZM8.34399 15.195C4.47299 11.345 3.83099 8.10796 3.75099 6.70296L2.25299 6.78796C2.35299 8.55596 3.14799 12.144 7.28599 16.258L8.34399 15.195ZM9.71899 9.01496L10.006 8.72896L8.94999 7.66596L8.66299 7.95096L9.71999 9.01396L9.71899 9.01496ZM10.234 5.09396L8.97399 3.40996L7.77299 4.30996L9.03299 5.99296L10.234 5.09396ZM4.73299 3.04296L3.16299 4.60296L4.22099 5.66696L5.78999 4.10696L4.73299 3.04296ZM9.19099 8.48296C8.66099 7.95096 8.66099 7.95096 8.66099 7.95296H8.65899L8.65599 7.95696C8.60878 8.00515 8.56625 8.05772 8.52899 8.11396C8.47499 8.19396 8.41599 8.29896 8.36599 8.43196C8.24422 8.77528 8.21389 9.14437 8.27799 9.50296C8.41199 10.368 9.00799 11.511 10.534 13.029L11.592 11.965C10.163 10.545 9.82299 9.68096 9.75999 9.27296C9.72999 9.07896 9.76099 8.98296 9.76999 8.96096C9.77499 8.94696 9.77699 8.94596 9.76999 8.95496C9.76117 8.96883 9.75113 8.98188 9.73999 8.99396L9.72999 9.00396C9.72676 9.00707 9.72342 9.01007 9.71999 9.01296L9.18999 8.48296H9.19099ZM10.534 13.029C12.061 14.547 13.21 15.139 14.076 15.271C14.519 15.339 14.876 15.285 15.147 15.184C15.2985 15.1279 15.4403 15.0482 15.567 14.948C15.5842 14.9336 15.6009 14.9186 15.617 14.903L15.624 14.897L15.627 14.894L15.628 14.892C15.628 14.892 15.629 14.891 15.1 14.359C14.57 13.827 14.573 13.826 14.573 13.826L14.575 13.824L14.577 13.822L14.583 13.817L14.593 13.807C14.605 13.7962 14.6177 13.7861 14.631 13.777C14.641 13.77 14.638 13.773 14.624 13.779C14.599 13.788 14.501 13.819 14.304 13.789C13.89 13.725 13.02 13.385 11.592 11.965L10.534 13.029ZM8.97399 3.40896C7.95399 2.04896 5.94999 1.83296 4.73299 3.04296L5.78999 4.10696C6.32199 3.57796 7.26599 3.63296 7.77299 4.30996L8.97299 3.40896H8.97399ZM3.75199 6.70396C3.73199 6.35796 3.89099 5.99596 4.22099 5.66796L3.16199 4.60396C2.62499 5.13796 2.20199 5.89396 2.25299 6.78796L3.75199 6.70396ZM18.472 18.764C18.198 19.038 17.902 19.192 17.607 19.219L17.746 20.712C18.481 20.643 19.082 20.273 19.53 19.828L18.472 18.764ZM10.006 8.72896C10.991 7.74996 11.064 6.20296 10.235 5.09496L9.03399 5.99396C9.43699 6.53296 9.37699 7.23996 8.94899 7.66696L10.006 8.72896ZM19.526 15.288C20.343 15.732 20.47 16.778 19.893 17.352L20.951 18.415C22.291 17.082 21.878 14.859 20.241 13.97L19.526 15.288ZM16.085 14.439C16.469 14.057 17.087 13.963 17.615 14.249L18.331 12.932C17.247 12.342 15.903 12.505 15.027 13.375L16.085 14.439Z" fill="white"/>
</svg>
