<svg width="24" height="30" viewBox="0 0 24 30" fill="none" xmlns="http://www.w3.org/2000/svg">
<rect y="28" width="23.04" height="2" fill="url(#paint0_linear_0_1)"/>
<path fill-rule="evenodd" clip-rule="evenodd" d="M7.66637 5C7.66637 6.933 9.23337 8.5 11.1664 8.5C13.0994 8.5 14.6664 6.933 14.6664 5C14.6664 3.067 13.0994 1.5 11.1664 1.5C9.23337 1.5 7.66637 3.067 7.66637 5ZM6.16637 5C6.16637 7.76142 8.40495 10 11.1664 10C13.9278 10 16.1664 7.76142 16.1664 5C16.1664 2.23858 13.9278 0 11.1664 0C8.40495 0 6.16637 2.23858 6.16637 5ZM3.5 15.8333C3.5 16.6011 3.59584 17.0226 3.7183 17.2731C3.813 17.4668 3.96737 17.6533 4.37326 17.8378C4.82816 18.0446 5.54897 18.2227 6.70051 18.3391C7.83767 18.4539 9.29432 18.5 11.1667 18.5C13.039 18.5 14.4957 18.4539 15.6328 18.3391C16.7844 18.2227 17.5052 18.0446 17.9601 17.8378C18.366 17.6533 18.5203 17.4668 18.615 17.2731C18.7375 17.0226 18.8333 16.6011 18.8333 15.8333C18.8333 15.0656 18.7375 14.6441 18.615 14.3936C18.5203 14.1999 18.366 14.0133 17.9601 13.8288C17.5052 13.6221 16.7844 13.4439 15.6328 13.3276C14.4957 13.2127 13.039 13.1667 11.1667 13.1667C9.29432 13.1667 7.83767 13.2127 6.70051 13.3276C5.54897 13.4439 4.82816 13.6221 4.37326 13.8288C3.96737 14.0133 3.813 14.1999 3.7183 14.3936C3.59584 14.6441 3.5 15.0656 3.5 15.8333ZM2 15.8333C2 19.2646 3.61792 20 11.1667 20C18.7154 20 20.3333 19.2646 20.3333 15.8333C20.3333 12.4021 18.7154 11.6667 11.1667 11.6667C3.61792 11.6667 2 12.4021 2 15.8333Z" fill="url(#paint1_linear_0_1)"/>
<defs>
<linearGradient id="paint0_linear_0_1" x1="-11.2628" y1="28.9997" x2="-10.922" y2="32.9248" gradientUnits="userSpaceOnUse">
<stop stop-color="#6B65DE"/>
<stop offset="1" stop-color="#E89DE7"/>
</linearGradient>
<linearGradient id="paint1_linear_0_1" x1="-6.96198" y1="9.99674" x2="12.7368" y2="28.054" gradientUnits="userSpaceOnUse">
<stop stop-color="#6B65DE"/>
<stop offset="1" stop-color="#E89DE7"/>
</linearGradient>
</defs>
</svg>
