<svg width="24" height="24" viewBox="0 0 24 24" fill="none" xmlns="http://www.w3.org/2000/svg">
<path fill-rule="evenodd" clip-rule="evenodd" d="M6.95391 6.00007C6.95391 8.36522 9.08733 10.5001 11.9994 10.5001C14.9114 10.5001 17.0448 8.36522 17.0448 6.00007C17.0448 3.63492 14.9114 1.5 11.9994 1.5C9.08733 1.5 6.95391 3.63492 6.95391 6.00007ZM5.45391 6.00007C5.45391 9.31382 8.38441 12.0001 11.9994 12.0001C15.6143 12.0001 18.5448 9.31382 18.5448 6.00007C18.5448 2.68632 15.6143 0 11.9994 0C8.38441 0 5.45391 2.68632 5.45391 6.00007ZM1.5 18.9999C1.5 19.9277 1.62472 20.4671 1.80885 20.8123C1.9664 21.1077 2.23867 21.3959 2.87118 21.6594C3.54637 21.9407 4.56128 22.1622 6.09434 22.3041C7.61273 22.4447 9.54308 22.5 12 22.5C14.4569 22.5 16.3873 22.4447 17.9057 22.3041C19.4387 22.1622 20.4536 21.9407 21.1288 21.6594C21.7613 21.3959 22.0336 21.1077 22.1911 20.8123C22.3753 20.4671 22.5 19.9277 22.5 18.9999C22.5 18.0721 22.3753 17.5327 22.1911 17.1875C22.0336 16.8921 21.7613 16.604 21.1288 16.3404C20.4536 16.0591 19.4387 15.8376 17.9057 15.6957C16.3873 15.5551 14.4569 15.4998 12 15.4998C9.54308 15.4998 7.61273 15.5551 6.09434 15.6957C4.56128 15.8376 3.54637 16.0591 2.87118 16.3404C2.23867 16.604 1.9664 16.8921 1.80885 17.1875C1.62472 17.5327 1.5 18.0721 1.5 18.9999ZM0 18.9999C0 23.1175 2.118 24 12 24C21.882 24 24 23.1175 24 18.9999C24 14.8824 21.882 13.9998 12 13.9998C2.118 13.9998 0 14.8824 0 18.9999Z" fill="#7268DC"/>
</svg>
