<svg width="18" height="19" viewBox="0 0 18 19" fill="none" xmlns="http://www.w3.org/2000/svg">
<path d="M12.7104 12H11.9204L11.6404 11.73C12.2654 11.0039 12.7221 10.1487 12.978 9.22559C13.2338 8.30243 13.2825 7.33413 13.1204 6.38998C12.6504 3.60998 10.3304 1.38997 7.53042 1.04997C6.54604 0.925441 5.54621 1.02775 4.60745 1.34906C3.66869 1.67038 2.81587 2.20219 2.11426 2.90381C1.41264 3.60542 0.88083 4.45824 0.559513 5.397C0.238196 6.33576 0.13589 7.33559 0.260424 8.31997C0.600424 11.12 2.82042 13.44 5.60042 13.91C6.54458 14.072 7.51288 14.0234 8.43604 13.7675C9.3592 13.5117 10.2144 13.0549 10.9404 12.43L11.2104 12.71V13.5L15.4604 17.75C15.8704 18.16 16.5404 18.16 16.9504 17.75C17.3604 17.34 17.3604 16.67 16.9504 16.26L12.7104 12ZM6.71042 12C4.22042 12 2.21042 9.98997 2.21042 7.49997C2.21042 5.00997 4.22042 2.99997 6.71042 2.99997C9.20042 2.99997 11.2104 5.00997 11.2104 7.49997C11.2104 9.98997 9.20042 12 6.71042 12Z" fill="#8468D1"/>
</svg>
