<svg width="24" height="24" viewBox="0 0 24 24" fill="none" xmlns="http://www.w3.org/2000/svg">
<path fill-rule="evenodd" clip-rule="evenodd" d="M12 7.25C11.2129 7.25 10.4458 7.49764 9.80734 7.95784C9.16884 8.41804 8.69133 9.06748 8.44244 9.81415C8.19355 10.5608 8.1859 11.3669 8.42057 12.1181C8.65525 12.8694 9.12035 13.5278 9.75 14V15C9.75 15.966 10.534 16.75 11.5 16.75H12.5C12.9641 16.75 13.4092 16.5656 13.7374 16.2374C14.0656 15.9092 14.25 15.4641 14.25 15V14C14.8796 13.5278 15.3448 12.8694 15.5794 12.1181C15.8141 11.3669 15.8065 10.5608 15.5576 9.81415C15.3087 9.06748 14.8312 8.41804 14.1927 7.95784C13.5542 7.49764 12.7871 7.25 12 7.25ZM9.75 11C9.75015 10.605 9.85427 10.2171 10.0519 9.87508C10.2495 9.53311 10.5337 9.24918 10.8758 9.05184C11.2179 8.8545 11.606 8.75069 12.001 8.75087C12.3959 8.75104 12.7839 8.85518 13.1259 9.05281C13.4678 9.25045 13.7518 9.53463 13.9491 9.87677C14.1464 10.2189 14.2502 10.607 14.25 11.0019C14.2498 11.3969 14.1457 11.7849 13.948 12.1268C13.7503 12.4688 13.4662 12.7527 13.124 12.95C13.0102 13.0159 12.9158 13.1106 12.8502 13.2245C12.7845 13.3384 12.75 13.4675 12.75 13.599V15C12.75 15.0663 12.7237 15.1299 12.6768 15.1768C12.6299 15.2237 12.5663 15.25 12.5 15.25H11.5C11.4337 15.25 11.3701 15.2237 11.3232 15.1768C11.2763 15.1299 11.25 15.0663 11.25 15V13.599C11.2502 13.4674 11.2157 13.338 11.1501 13.2239C11.0844 13.1098 10.9899 13.015 10.876 12.949C10.5336 12.7517 10.2493 12.4677 10.0516 12.1255C9.85396 11.7833 9.74992 11.3952 9.75 11Z" fill="#7268DC"/>
<path fill-rule="evenodd" clip-rule="evenodd" d="M12 1.25C11.062 1.25 10.167 1.557 8.723 2.051L7.996 2.301C6.515 2.807 5.371 3.199 4.553 3.531C4.141 3.698 3.786 3.861 3.501 4.026C3.226 4.186 2.951 4.385 2.764 4.652C2.579 4.915 2.483 5.239 2.423 5.552C2.36 5.876 2.323 6.265 2.298 6.712C2.25 7.598 2.25 8.814 2.25 10.39V11.991C2.25 18.092 6.858 21.017 9.598 22.215L9.625 22.226C9.965 22.375 10.285 22.514 10.652 22.608C11.039 22.708 11.451 22.75 12 22.75C12.55 22.75 12.96 22.708 13.348 22.608C13.715 22.514 14.035 22.375 14.374 22.226L14.402 22.215C17.142 21.017 21.75 18.092 21.75 11.991V10.39C21.75 8.814 21.75 7.598 21.702 6.711C21.6859 6.322 21.6441 5.9345 21.577 5.551C21.517 5.239 21.421 4.915 21.237 4.651C21.049 4.385 20.774 4.186 20.499 4.026C20.16 3.83733 19.8085 3.67195 19.447 3.531C18.629 3.199 17.485 2.807 16.004 2.301L15.277 2.051C13.833 1.557 12.937 1.25 12 1.25ZM9.08 3.514C10.695 2.962 11.342 2.75 12 2.75C12.658 2.75 13.305 2.962 14.92 3.514L15.492 3.71C17.005 4.228 18.108 4.606 18.882 4.92C19.269 5.078 19.549 5.21 19.746 5.324C19.843 5.38 19.91 5.426 19.954 5.463C19.992 5.493 20.007 5.511 20.009 5.513C20.0221 5.53655 20.0328 5.56134 20.041 5.587C20.061 5.643 20.083 5.723 20.104 5.835C20.1581 6.15182 20.1915 6.47183 20.204 6.793C20.25 7.634 20.25 8.808 20.25 10.417V11.991C20.25 17.166 16.38 19.714 13.801 20.84C13.43 21.002 13.215 21.094 12.976 21.155C12.748 21.214 12.47 21.25 12 21.25C11.53 21.25 11.252 21.214 11.024 21.155C10.784 21.095 10.57 21.002 10.199 20.84C7.619 19.713 3.75 17.166 3.75 11.991V10.417C3.75 8.808 3.75 7.634 3.796 6.793C3.80849 6.47183 3.8419 6.15182 3.896 5.835C3.917 5.723 3.939 5.643 3.959 5.587C3.977 5.537 3.989 5.517 3.991 5.513C4.00768 5.4946 4.0261 5.47786 4.046 5.463C4.11149 5.41086 4.18105 5.36405 4.254 5.323C4.451 5.209 4.731 5.078 5.118 4.921C5.892 4.606 6.995 4.228 8.508 3.711L9.081 3.514H9.08Z" fill="#7268DC"/>
</svg>
