<svg width="24" height="24" viewBox="0 0 24 24" fill="none" xmlns="http://www.w3.org/2000/svg">
<path d="M5.5 7C5.5 6.33696 5.76339 5.70107 6.23223 5.23223C6.70107 4.76339 7.33696 4.5 8 4.5C8.66304 4.5 9.29893 4.76339 9.76777 5.23223C10.2366 5.70107 10.5 6.33696 10.5 7C10.5 7.66304 10.2366 8.29893 9.76777 8.76777C9.29893 9.23661 8.66304 9.5 8 9.5C7.33696 9.5 6.70107 9.23661 6.23223 8.76777C5.76339 8.29893 5.5 7.66304 5.5 7ZM8 3C6.93913 3 5.92172 3.42143 5.17157 4.17157C4.42143 4.92172 4 5.93913 4 7C4 8.06087 4.42143 9.07828 5.17157 9.82843C5.92172 10.5786 6.93913 11 8 11C9.06087 11 10.0783 10.5786 10.8284 9.82843C11.5786 9.07828 12 8.06087 12 7C12 5.93913 11.5786 4.92172 10.8284 4.17157C10.0783 3.42143 9.06087 3 8 3ZM15.5 8C15.5 7.60218 15.658 7.22064 15.9393 6.93934C16.2206 6.65804 16.6022 6.5 17 6.5C17.3978 6.5 17.7794 6.65804 18.0607 6.93934C18.342 7.22064 18.5 7.60218 18.5 8C18.5 8.39782 18.342 8.77936 18.0607 9.06066C17.7794 9.34196 17.3978 9.5 17 9.5C16.6022 9.5 16.2206 9.34196 15.9393 9.06066C15.658 8.77936 15.5 8.39782 15.5 8ZM17 5C16.2044 5 15.4413 5.31607 14.8787 5.87868C14.3161 6.44129 14 7.20435 14 8C14 8.79565 14.3161 9.55871 14.8787 10.1213C15.4413 10.6839 16.2044 11 17 11C17.7956 11 18.5587 10.6839 19.1213 10.1213C19.6839 9.55871 20 8.79565 20 8C20 7.20435 19.6839 6.44129 19.1213 5.87868C18.5587 5.31607 17.7956 5 17 5ZM4.25 13C3.65326 13 3.08097 13.2371 2.65901 13.659C2.23705 14.081 2 14.6533 2 15.25V15.528C2.00118 15.5975 2.00585 15.6669 2.014 15.736C2.09658 16.4801 2.36404 17.1917 2.792 17.806C3.61 18.974 5.172 20 8 20C9.369 20 10.441 19.76 11.276 19.38C11.1241 18.8761 11.0341 18.3556 11.008 17.83C10.363 18.21 9.413 18.5 8 18.5C5.578 18.5 4.514 17.65 4.02 16.945C3.73974 16.5411 3.56353 16.0743 3.507 15.586C3.50398 15.5597 3.50165 15.5334 3.5 15.507V15.25C3.5 15.0511 3.57902 14.8603 3.71967 14.7197C3.86032 14.579 4.05109 14.5 4.25 14.5H11.732C11.981 14.023 12.287 13.581 12.641 13.183C12.3596 13.0618 12.0564 12.9995 11.75 13H4.25ZM23 17.5C23 16.0413 22.4205 14.6424 21.3891 13.6109C20.3576 12.5795 18.9587 12 17.5 12C16.0413 12 14.6424 12.5795 13.6109 13.6109C12.5795 14.6424 12 16.0413 12 17.5C12 18.9587 12.5795 20.3576 13.6109 21.3891C14.6424 22.4205 16.0413 23 17.5 23C18.9587 23 20.3576 22.4205 21.3891 21.3891C22.4205 20.3576 23 18.9587 23 17.5ZM18 18L18.001 20.503C18.001 20.6356 17.9483 20.7628 17.8546 20.8566C17.7608 20.9503 17.6336 21.003 17.501 21.003C17.3684 21.003 17.2412 20.9503 17.1474 20.8566C17.0537 20.7628 17.001 20.6356 17.001 20.503V18H14.496C14.3634 18 14.2362 17.9473 14.1424 17.8536C14.0487 17.7598 13.996 17.6326 13.996 17.5C13.996 17.3674 14.0487 17.2402 14.1424 17.1464C14.2362 17.0527 14.3634 17 14.496 17H17V14.5C17 14.3674 17.0527 14.2402 17.1464 14.1464C17.2402 14.0527 17.3674 14 17.5 14C17.6326 14 17.7598 14.0527 17.8536 14.1464C17.9473 14.2402 18 14.3674 18 14.5V17H20.497C20.6296 17 20.7568 17.0527 20.8506 17.1464C20.9443 17.2402 20.997 17.3674 20.997 17.5C20.997 17.6326 20.9443 17.7598 20.8506 17.8536C20.7568 17.9473 20.6296 18 20.497 18H18Z" fill="white"/>
</svg>
