<svg width="24" height="25" viewBox="0 0 24 25" fill="none" xmlns="http://www.w3.org/2000/svg">
<path d="M4.5 10.5C3.125 10.5 2 11.625 2 13C2 14.375 3.125 15.5 4.5 15.5C5.875 15.5 7 14.375 7 13C7 11.625 5.875 10.5 4.5 10.5ZM19.5 10.5C18.125 10.5 17 11.625 17 13C17 14.375 18.125 15.5 19.5 15.5C20.875 15.5 22 14.375 22 13C22 11.625 20.875 10.5 19.5 10.5ZM12 10.5C10.625 10.5 9.5 11.625 9.5 13C9.5 14.375 10.625 15.5 12 15.5C13.375 15.5 14.5 14.375 14.5 13C14.5 11.625 13.375 10.5 12 10.5Z" fill="white"/>
</svg>